<?xml version="1.0" encoding="UTF-8"?>
<svg id="icons" xmlns="http://www.w3.org/2000/svg" viewBox="0 0 240 240">
  <defs>
    <style>
      .cls-1 {
        fill: #010101;
        stroke-width: 0px;
      }
    </style>
  </defs>
  <g id="filled-2" data-name="filled">
    <g id="calendar">
      <path class="cls-1" d="m231.59,50.72c-2.44-4.78-6.32-8.68-11.11-11.11-5.25-2.68-12.08-2.77-25.37-2.77V11.75c0-6.24-4.79-11.6-11.02-11.89-6.65-.31-12.13,4.98-12.13,11.56v25.41h-103.92V11.43c0-6.58-5.48-11.87-12.13-11.56-6.23.29-11.02,5.65-11.02,11.89v25.09c-13.29,0-20.12.09-25.37,2.77-4.78,2.43-8.67,6.32-11.11,11.11-2.77,5.43-2.77,12.55-2.77,26.79v10.16h228.72v-10.16c0-14.23,0-21.35-2.77-26.79Z"/>
      <path class="cls-1" d="m5.64,100.69v98.8c0,14.23,0,21.35,2.77,26.79,2.44,4.78,6.32,8.68,11.11,11.11,5.43,2.77,12.55,2.77,26.79,2.77h147.39c14.23,0,21.35,0,26.79-2.77,4.78-2.43,8.67-6.32,11.11-11.11,2.77-5.43,2.77-12.55,2.77-26.79v-98.8H5.64Zm61.38,101.66h-6.56c-7.19,0-13.02-5.83-13.02-13.02s5.83-13.02,13.02-13.02h6.56c7.19,0,13.02,5.83,13.02,13.02s-5.83,13.02-13.02,13.02Zm0-50.83h-6.56c-7.19,0-13.02-5.82-13.02-13.02s5.83-13.02,13.02-13.02h6.56c7.19,0,13.02,5.83,13.02,13.02s-5.83,13.02-13.02,13.02Zm56.26,50.83h-6.56c-7.19,0-13.02-5.83-13.02-13.02s5.83-13.02,13.02-13.02h6.56c7.19,0,13.02,5.83,13.02,13.02s-5.83,13.02-13.02,13.02Zm49.7-76.88h6.56c7.19,0,13.02,5.83,13.02,13.02s-5.83,13.02-13.02,13.02h-6.56c-7.19,0-13.02-5.82-13.02-13.02s5.83-13.02,13.02-13.02Zm0,50.83h6.56c7.19,0,13.02,5.83,13.02,13.02s-5.83,13.02-13.02,13.02h-6.56c-7.19,0-13.02-5.83-13.02-13.02s5.83-13.02,13.02-13.02Zm-36.68-37.81c0,7.2-5.83,13.02-13.02,13.02h-6.56c-7.19,0-13.02-5.82-13.02-13.02s5.83-13.02,13.02-13.02h6.56c7.19,0,13.02,5.83,13.02,13.02Z"/>
    </g>
  </g>
</svg>