<?xml version="1.0" encoding="UTF-8"?>
<svg xmlns="http://www.w3.org/2000/svg" xmlns:xlink="http://www.w3.org/1999/xlink" viewBox="0 0 1364.54 973.69">
  <defs>
    <style>
      .cls-1 {
        fill: #722f37;
      }

      .cls-1, .cls-2, .cls-3 {
        stroke-width: 0px;
      }

      .cls-2 {
        fill: none;
      }

      .cls-4 {
        clip-path: url(#clippath-1);
      }

      .cls-3 {
        fill: #fff;
      }

      .cls-5 {
        clip-path: url(#clippath);
      }
    </style>
    <clipPath id="clippath">
      <path class="cls-2" d="m780.06,581.97c10.39,12.3,15.77,28.53,15.48,44.61-.12,6.47,8.13,9.25,11.94,4.02,4.87-6.68,9.54-13.55,14.84-19.88,10.78-12.85,26.1-24.05,42.8-22.49,5.15.48,10.4,2.16,15.39.8,8.33-2.28,12.6-12.02,20.6-15.25,5.01-2.02,10.66-1.17,16.04-1.62,14.69-1.25,26.63-12.12,36.33-23.22,13.21-15.12,25.22-34.94,19.6-54.21-4.59-15.76-19.55-25.91-33.79-34.08-7.61-4.36-15.64-8.63-24.39-9.18-9-.57-17.73,2.87-26.03,6.4-23.13,9.85-46.7,21.76-61.36,42.19-11.17,15.58-16.16,34.79-26.4,50.99-8.32,13.17-19.85,23.95-31.24,34.57"/>
    </clipPath>
    <clipPath id="clippath-1">
      <path class="cls-2" d="m982.67,538.82c4.54,3.75,6.58,9.88,6.63,15.77s-1.63,11.64-3.42,17.25c-1.05,3.3-2.15,6.85-1.11,10.15s5.25,5.77,8.07,3.76c3.1-2.22,1.8-6.96.92-10.67-2.1-8.85.24-18.08,2.58-26.87,1.29-4.86,2.65-9.86,5.73-13.83,4.26-5.48,11.13-8.17,17.77-10.18,7.04-2.13,14.22-3.78,21.48-4.94,1.17-.19,2.56-.3,3.37.57,1.65,1.76-1.04,4.31-1.31,6.71-.32,2.86,3.23,4.85,6.05,4.27s5.02-2.69,7.31-4.45c3.9-3,8.46-5.13,13.27-6.18,5.94-1.31,12.1-.98,18.17-1.22s12.38-1.16,17.41-4.58,8.38-9.94,6.48-15.71c-1.4-4.27-5.36-7.33-9.64-8.72s-8.87-1.34-13.36-1.1c-34.75,1.87-68.4,14.79-97.45,33.94-5.66,3.73-11.62,8.4-12.7,15.1-.37,2.32.91,5.55,3.2,5.02"/>
    </clipPath>
  </defs>
  <g id="_404" data-name="404">
    <g id="_404-2" data-name="404">
      <path class="cls-3" d="m874.89,740.96v-47.25h-109.2v-32.2l115.15-145.95h41.3v140h22.05v38.15h-22.05v47.25h-47.25Zm-64.05-83.65h72.1v-89.6l-72.1,89.6Z"/>
      <path class="cls-3" d="m1065.29,750.06c-24.74,0-44.57-4.67-59.5-14-14.93-9.33-25.72-22.92-32.38-40.77-6.65-17.85-9.97-39.25-9.97-64.23s3.33-46.66,9.97-64.4c6.65-17.73,17.44-31.26,32.38-40.6,14.93-9.33,34.76-14,59.5-14s44.57,4.67,59.5,14c14.93,9.33,25.73,22.87,32.38,40.6,6.65,17.74,9.98,39.2,9.98,64.4s-3.33,46.38-9.98,64.23c-6.65,17.85-17.45,31.45-32.38,40.77-14.93,9.33-34.77,14-59.5,14Zm0-40.6c20.3,0,34.35-6.76,42.17-20.3,7.82-13.53,11.73-32.9,11.73-58.1s-3.91-44.56-11.73-58.1c-7.82-13.53-21.88-20.3-42.17-20.3s-34.36,6.77-42.17,20.3c-7.82,13.54-11.72,32.9-11.72,58.1s3.9,44.57,11.72,58.1c7.81,13.54,21.88,20.3,42.17,20.3Z"/>
      <path class="cls-3" d="m1295.24,740.96v-47.25h-109.2v-32.2l115.15-145.95h41.3v140h22.05v38.15h-22.05v47.25h-47.25Zm-64.05-83.65h72.1v-89.6l-72.1,89.6Z"/>
    </g>
    <g id="_4xx" data-name="4xx">
      <g class="cls-5">
        <path id="_404-3" data-name="404" class="cls-1" d="m874.89,740.96v-47.25h-109.2v-32.2l115.15-145.95h41.3v140h22.05v38.15h-22.05v47.25h-47.25Zm-64.05-83.65h72.1v-89.6l-72.1,89.6Zm254.45,92.75c-24.74,0-44.57-4.67-59.5-14-14.93-9.33-25.72-22.92-32.38-40.77-6.65-17.85-9.97-39.25-9.97-64.23s3.33-46.66,9.97-64.4c6.65-17.73,17.44-31.26,32.38-40.6,14.93-9.33,34.76-14,59.5-14s44.57,4.67,59.5,14c14.93,9.33,25.73,22.87,32.38,40.6,6.65,17.74,9.98,39.2,9.98,64.4s-3.33,46.38-9.98,64.23c-6.65,17.85-17.45,31.45-32.38,40.77-14.93,9.33-34.77,14-59.5,14Zm0-40.6c20.3,0,34.35-6.76,42.17-20.3,7.82-13.53,11.73-32.9,11.73-58.1s-3.91-44.56-11.73-58.1c-7.82-13.53-21.88-20.3-42.17-20.3s-34.36,6.77-42.17,20.3c-7.82,13.54-11.72,32.9-11.72,58.1s3.9,44.57,11.72,58.1c7.81,13.54,21.88,20.3,42.17,20.3Zm229.95,31.5v-47.25h-109.2v-32.2l115.15-145.95h41.3v140h22.05v38.15h-22.05v47.25h-47.25Zm-64.05-83.65h72.1v-89.6l-72.1,89.6Z"/>
      </g>
    </g>
    <g id="x0x">
      <g class="cls-4">
        <path id="_404-4" data-name="404" class="cls-1" d="m874.89,740.96v-47.25h-109.2v-32.2l115.15-145.95h41.3v140h22.05v38.15h-22.05v47.25h-47.25Zm-64.05-83.65h72.1v-89.6l-72.1,89.6Zm254.45,92.75c-24.74,0-44.57-4.67-59.5-14-14.93-9.33-25.72-22.92-32.38-40.77-6.65-17.85-9.97-39.25-9.97-64.23s3.33-46.66,9.97-64.4c6.65-17.73,17.44-31.26,32.38-40.6,14.93-9.33,34.76-14,59.5-14s44.57,4.67,59.5,14c14.93,9.33,25.73,22.87,32.38,40.6,6.65,17.74,9.98,39.2,9.98,64.4s-3.33,46.38-9.98,64.23c-6.65,17.85-17.45,31.45-32.38,40.77-14.93,9.33-34.77,14-59.5,14Zm0-40.6c20.3,0,34.35-6.76,42.17-20.3,7.82-13.53,11.73-32.9,11.73-58.1s-3.91-44.56-11.73-58.1c-7.82-13.53-21.88-20.3-42.17-20.3s-34.36,6.77-42.17,20.3c-7.82,13.54-11.72,32.9-11.72,58.1s3.9,44.57,11.72,58.1c7.81,13.54,21.88,20.3,42.17,20.3Zm229.95,31.5v-47.25h-109.2v-32.2l115.15-145.95h41.3v140h22.05v38.15h-22.05v47.25h-47.25Zm-64.05-83.65h72.1v-89.6l-72.1,89.6Z"/>
      </g>
    </g>
  </g>
  <g id="Logo">
    <g id="wine">
      <path class="cls-1" d="m842.85,134.17c-1.35-2.27-3.55-3.92-6.04-4.81-30.18-10.75-62.26,6.1-86.19,26.65-23.05,19.81-43.31,44.09-71.09,56.42-19.86,8.82-42.08,10.77-63.81,10.8-104.73.18-208.86-43.19-282.5-117.66-12.84-12.98-25.01-27.23-31.57-44.27l-3.79-3.3c-199.46,225.13-199.9,398.73,8.12,518.37l23.68,11.7c218.9,91.49,355.9-10.91,414.67-298.52l-8.79-3.42c-8.89-3.47-15.17-11.51-16.42-20.97-4.7-35.45,13.19-73.71,44.69-91.21,19.45-10.8,42.06-13.93,63.43-20.13,9.35-2.71,20.77-10.96,15.61-19.66Z"/>
    </g>
    <path id="glass" class="cls-3" d="m444.72,633.32c124.14,21.24,219.9-51.25,267.29-162.09,12.74-28.63,21.34-58.46,28.35-88.25,12.98-59.77,22.17-119.68,18.62-180.42-19.72,56.53-33.01,114.09-54.95,169.24-47.23,117.23-114.15,239.81-256.65,233.22-5.32-.06-16.07-.9-21.33-1.62-28.27-3.9-58.06-8.74-83.41-22.57-18.71-10.57-38.33-19.89-55.93-32.42C44,388.1,215.83,167.41,352.53,2.34l-2.35-2.34c-45.85,38.55-88.13,81.65-125.06,129.68-36.41,48.19-67.79,102.06-83.37,162.95-34.57,134.7,46.8,235.03,159.83,296.43,0,0,3.98,1.93,7.05,3.41-5.69,7.83-10.7,16-15.74,24.16-22.66,35.49-43.26,72.11-58.35,111.32-12.27,25.08-28.86,48.03-39.47,73.93-7.15,17.09-13.8,34.3-19.16,51.99-58.72-17.08-125.13-9.35-175.3,28.48l-.61,6.58c13.02,1.82,26.05,3.56,39.02,5.59,64.64,8.59,129.01,20.74,189.14,46.62,24.13,10.08,47.86,21.22,71.48,32.55,0,0,3.13-5.81,3.13-5.81-19.02-53.04-61.97-90.59-112.42-109.24,2.15-3.06,4.27-6.14,6.34-9.25,25.24-34.95,39.36-73.3,56.8-112.08,14.01-24.2,27.77-48.45,37.62-74.84,8.51-22.17,18.24-43.64,24.88-66.44,12.69,5.73,27,7.6,39.8,12.77,28.44,11.11,58.56,20.09,88.93,24.53Z"/>
    <g id="splash_2" data-name="splash 2">
      <path class="cls-1" d="m939.24,359.49c-11.47,19.94-7.86,47.37,8.37,63.68,1.78,1.79,3.95,3.57,6.8,2.48,1.15-.44,2.1-1.29,2.76-2.33,1.64-2.58,1.55-5.64,1.43-8.58-.77-19.63-2.28-41.09-15.1-55.75-1.2-1.37-3.47-1.18-4.25.47,0,.01-.01.03-.02.04Z"/>
    </g>
    <g id="spash_1" data-name="spash 1">
      <path class="cls-1" d="m893.81,188.5c13.53,22.34,14.55,50.08,18.09,75.98.29,2.14,1.12,4.21,2.53,5.84,4.24,4.92,9.6,1.87,11.46-2.25,1.27-2.82,1.26-6.04,1.14-9.13-.7-17.76-4.33-35.39-10.7-51.98-3.69-9.6-9.57-19.89-19.26-22.65-.95-.27-1.97-.03-2.7.62h0c-1.01.9-1.26,2.41-.56,3.57Z"/>
    </g>
  </g>
</svg>