<?xml version="1.0" encoding="UTF-8"?>
<svg id="svg8" xmlns="http://www.w3.org/2000/svg" xmlns:xlink="http://www.w3.org/1999/xlink" viewBox="0 0 2000 1000">
  <defs>
    <style>
      .cls-1 {
        filter: url(#filter1313);
      }

      .cls-2 {
        fill: #e3e2dd;
      }

      .cls-2, .cls-3, .cls-4 {
        stroke-width: 0px;
      }

      .cls-3 {
        fill: url(#Unbenannter_Verlauf_91);
      }

      .cls-5 {
        filter: url(#filter1313-2);
        isolation: isolate;
        opacity: .85;
      }

      .cls-4 {
        fill: #e9e9e8;
      }
    </style>
    <linearGradient id="Unbenannter_Verlauf_91" data-name="Unbenannter Verlauf 91" x1="382.75" y1="1011.24" x2="382.75" y2="752.86" gradientTransform="translate(86.51 2575.25) scale(2.39 -2.39)" gradientUnits="userSpaceOnUse">
      <stop offset="0" stop-color="#233151"/>
      <stop offset="1" stop-color="#46577b"/>
    </linearGradient>
    <filter id="filter1313" x="-0.83118421" y="-0.83118421" width="2.6623683" height="2.6623683">
      <feGaussianBlur stdDeviation="9.9640465"/>
    </filter>
    <filter id="filter1313-2" data-name="filter1313" x="-0.83118421" y="-0.83118421" width="2.6623683" height="2.6623683">
      <feGaussianBlur stdDeviation="9.9640465"/>
    </filter>
  </defs>
  <g id="layer1">
    <g id="g1590">
      <rect id="rect101" class="cls-3" width="2000" height="1000"/>
      <path id="path1351" class="cls-2" d="m664.73,23.47c-.5,0-.91.41-.91.91,0,.5.41.91.91.91.5,0,.91-.41.91-.91,0-.5-.41-.91-.91-.91Zm300.63,1c-.98,0-1.77.79-1.77,1.77h0c0,.98.79,1.77,1.77,1.77h0c.98,0,1.77-.79,1.77-1.77,0-.98-.79-1.77-1.77-1.77Zm-580.96.87c-.5,0-.91.41-.91.91,0,.5.41.91.91.91.5,0,.91-.41.91-.91,0-.5-.41-.91-.91-.91Zm67.74,3.25c-1.05,0-1.91.85-1.91,1.91,0,1.05.85,1.91,1.91,1.91,1.05,0,1.91-.85,1.91-1.91,0-1.05-.85-1.91-1.91-1.91Zm404.08.02c-.96.02-1.74.81-1.74,1.77,0,.98.79,1.77,1.77,1.77.98,0,1.77-.79,1.77-1.77h0c0-.98-.79-1.77-1.77-1.77h0s-.02,0-.03,0ZM59.63,43.18c-1.04.02-1.87.87-1.87,1.91,0,1.05.85,1.91,1.91,1.91,1.05,0,1.91-.85,1.91-1.91,0-1.05-.85-1.91-1.91-1.91-.01,0-.02,0-.03,0Zm206.93,4.86c-.96.02-1.74.81-1.74,1.77,0,.98.79,1.77,1.77,1.77.98,0,1.77-.79,1.77-1.77h0c0-.98-.79-1.77-1.77-1.77h0s-.02,0-.03,0Zm456.05.11c-.5,0-.91.41-.91.91,0,.5.41.91.91.91.5,0,.91-.41.91-.91,0-.5-.41-.91-.91-.91Zm-595.11.63c-.5,0-.91.41-.91.91,0,.5.41.91.91.91.5,0,.91-.41.91-.91,0-.5-.41-.91-.91-.91Zm478.15,1.87c-.5,0-.91.41-.91.91,0,.5.41.91.91.91.5,0,.91-.41.91-.91,0-.5-.41-.91-.91-.91Zm196.48,1.8c-1.04.02-1.87.87-1.87,1.91,0,1.05.85,1.91,1.91,1.91,1.05,0,1.91-.85,1.91-1.91,0-1.05-.85-1.91-1.91-1.91-.01,0-.02,0-.03,0h0Zm-285.04,6.13c-1.33,0-2.4,1.08-2.4,2.4,0,1.33,1.08,2.4,2.4,2.4,1.33,0,2.4-1.08,2.41-2.4,0-1.33-1.08-2.4-2.41-2.4Zm389.82,2.65c-1.33,0-2.4,1.08-2.4,2.41,0,1.33,1.08,2.4,2.4,2.4,1.33,0,2.4-1.08,2.41-2.4,0-1.33-1.08-2.41-2.41-2.41Zm-276.88,3.48c-.5,0-.91.41-.91.91,0,.5.41.91.91.91.5,0,.91-.41.91-.91,0-.5-.41-.91-.91-.91Zm-298.14,5.62c-.5,0-.91.41-.91.91,0,.5.41.91.91.91.5,0,.91-.41.91-.91,0-.5-.41-.91-.91-.91Zm73.34,6.99c-.96.02-1.73.8-1.74,1.77,0,.98.79,1.77,1.77,1.77h0c.98,0,1.77-.79,1.77-1.77,0-.98-.79-1.77-1.77-1.77-.01,0-.02,0-.03,0h0Zm73.86,5.2c-.5,0-.91.41-.91.91,0,.5.41.91.91.91.5,0,.91-.41.91-.91,0-.5-.41-.91-.91-.91Zm-422.84,7.5c-.5,0-.91.41-.91.91,0,.5.41.91.91.91.5,0,.91-.41.91-.91,0-.5-.41-.91-.91-.91Zm157.22.87c-1.05,0-1.91.85-1.91,1.91,0,1.05.85,1.91,1.91,1.91,1.05,0,1.91-.85,1.91-1.91,0-1.05-.85-1.91-1.91-1.91Zm526.74,1.24c-.96.02-1.73.8-1.74,1.77,0,.98.79,1.77,1.77,1.77.98,0,1.77-.79,1.77-1.77h0c0-.98-.79-1.77-1.77-1.77-.01,0-.02,0-.03,0Zm120.15,2.76c-.96.02-1.74.81-1.74,1.77,0,.98.79,1.77,1.77,1.77.98,0,1.77-.79,1.77-1.77,0-.98-.79-1.77-1.77-1.77h0s-.02,0-.03,0h0Zm69.1,7.61c-.5,0-.91.41-.91.91,0,.5.41.91.91.91.5,0,.91-.41.91-.91,0-.5-.41-.91-.91-.91Zm-383.19,10.61c-.5,0-.91.41-.91.91,0,.5.41.91.91.91.5,0,.91-.41.91-.91,0-.5-.41-.91-.91-.91Zm-133.92,10.61c-.5,0-.91.41-.91.91,0,.5.41.91.91.91.5,0,.91-.41.91-.91,0-.5-.41-.91-.91-.91Zm246.78,4.39c-.96.02-1.73.8-1.74,1.77,0,.98.79,1.77,1.77,1.77.98,0,1.77-.79,1.77-1.77h0c0-.98-.79-1.77-1.77-1.77-.01,0-.02,0-.03,0ZM58.56,145.69c-.96.02-1.73.8-1.74,1.77,0,.98.79,1.77,1.77,1.77h0c.98,0,1.77-.79,1.77-1.77h0c0-.98-.79-1.77-1.77-1.77-.01,0-.02,0-.03,0Zm538.67,1.53c-.5,0-.91.41-.91.91,0,.5.41.91.91.91.5,0,.91-.41.91-.91,0-.5-.41-.91-.91-.91Zm296.4.7c-1.04.02-1.87.87-1.87,1.91,0,1.05.85,1.91,1.91,1.91,1.05,0,1.91-.85,1.91-1.91,0-1.05-.85-1.91-1.91-1.91-.01,0-.02,0-.03,0h0Zm-538.28,1c-.5,0-.91.41-.91.91,0,.5.41.91.91.91.5,0,.91-.41.91-.91,0-.5-.41-.91-.91-.91Zm415.33.18c-.5,0-.91.41-.91.91,0,.5.41.91.91.91.5,0,.91-.41.91-.91,0-.5-.41-.91-.91-.91Zm-488.47,2.81c-.5,0-.91.41-.91.91,0,.5.41.91.91.91.5,0,.91-.41.91-.91,0-.5-.41-.91-.91-.91Zm444.4,0c-.5,0-.91.41-.91.91,0,.5.41.91.91.91.5,0,.91-.41.91-.91,0-.5-.41-.91-.91-.91Zm-597.22,2.81c-.5,0-.91.41-.91.91,0,.5.41.91.91.91.5,0,.91-.41.91-.91,0-.5-.41-.91-.91-.91Zm176.24,21.24c-.96.02-1.74.81-1.74,1.77,0,.98.79,1.77,1.77,1.77h0c.98,0,1.77-.79,1.77-1.77h0c0-.98-.79-1.77-1.77-1.77h0s-.02,0-.03,0h0Zm-89.81,2.93c-.98,0-1.77.79-1.77,1.77,0,.98.79,1.77,1.77,1.77.98,0,1.77-.79,1.77-1.77h0c0-.98-.79-1.77-1.77-1.77h0Zm205.14,8.65c-.5,0-.91.41-.91.91,0,.5.41.91.91.91.5,0,.91-.41.91-.91,0-.5-.41-.91-.91-.91Zm475.51,15.26c-.72,0-1.29.58-1.29,1.29h0c0,.72.58,1.29,1.29,1.3h0c.72,0,1.29-.58,1.29-1.29h0c0-.72-.58-1.3-1.29-1.3h0Zm-261.4.81c-1.04.02-1.87.87-1.87,1.91,0,1.05.85,1.91,1.91,1.91,1.05,0,1.91-.85,1.91-1.91,0-1.05-.85-1.91-1.91-1.91-.01,0-.02,0-.03,0h0Zm-471.94,7.37c-.5,0-.91.41-.91.91,0,.5.41.91.91.91.5,0,.91-.41.91-.91,0-.5-.41-.91-.91-.91Zm689.42,1.58c-.5,0-.91.41-.91.91,0,.5.41.91.91.91.5,0,.91-.41.91-.91,0-.5-.41-.91-.91-.91Zm-421.64,7.96c-.5,0-.91.41-.91.91,0,.5.41.91.91.91.5,0,.91-.41.91-.91,0-.5-.41-.91-.91-.91Zm-307.16,9.21c-.5,0-.91.41-.91.91,0,.5.41.91.91.91.5,0,.91-.41.91-.91,0-.5-.41-.91-.91-.91Zm197.11,5.37c-.5,0-.91.41-.91.91,0,.5.41.91.91.91.5,0,.91-.41.91-.91,0-.5-.41-.91-.91-.91Zm448.34,8.96c-.96.02-1.73.8-1.74,1.77,0,.98.79,1.77,1.77,1.77h0c.98,0,1.77-.79,1.77-1.77,0-.98-.79-1.77-1.77-1.77-.01,0-.02,0-.03,0h0Zm-185.81,1.65c-.5,0-.91.41-.91.91,0,.5.41.91.91.91.5,0,.91-.41.91-.91,0-.5-.41-.91-.91-.91Zm-545.9,2.77c-.5,0-.91.41-.91.91,0,.5.41.91.91.91.5,0,.91-.41.91-.91,0-.5-.41-.91-.91-.91Zm393.42,11.81c-.5,0-.91.41-.91.91,0,.5.41.91.91.91.5,0,.91-.41.91-.91,0-.5-.41-.91-.91-.91Zm249.75,4.12c-.5,0-.91.41-.91.91,0,.5.41.91.91.91.5,0,.91-.41.91-.91,0-.5-.41-.91-.91-.91Zm-166.21,1.18c-.5,0-.91.41-.91.91,0,.5.41.91.91.91.5,0,.91-.41.91-.91,0-.5-.41-.91-.91-.91Zm435.71,3.32c-.98,0-1.77.79-1.77,1.77h0c0,.98.79,1.77,1.77,1.77h0c.98,0,1.77-.79,1.77-1.77,0-.98-.79-1.77-1.77-1.77Zm-720.46,7.13c-1.33,0-2.41,1.08-2.41,2.41,0,1.33,1.08,2.4,2.41,2.4,1.33,0,2.4-1.08,2.4-2.4,0-1.33-1.08-2.4-2.4-2.41Zm136.21,11.09c-1.04.02-1.87.87-1.87,1.91,0,1.05.85,1.91,1.91,1.91,1.05,0,1.91-.85,1.91-1.91,0-1.05-.85-1.91-1.91-1.91-.01,0-.02,0-.04,0h0Zm-67.57,1.13c-.98,0-1.77.79-1.77,1.77h0c0,.98.79,1.77,1.77,1.77h0c.98,0,1.77-.79,1.77-1.77h0c0-.98-.79-1.77-1.77-1.77h0Zm338.33,3.9c-.96.02-1.74.81-1.74,1.77,0,.98.79,1.77,1.77,1.77.98,0,1.77-.79,1.77-1.77,0-.98-.79-1.77-1.77-1.77-.01,0-.02,0-.03,0h0Zm-163.21,5.06c-.5,0-.91.41-.91.91,0,.5.41.91.91.91.5,0,.91-.41.91-.91,0-.5-.41-.91-.91-.91Zm-54.48,5.49c-.5,0-.91.41-.91.91,0,.5.41.91.91.91.5,0,.91-.41.91-.91,0-.5-.41-.91-.91-.91Zm-267.1.72c-.96.02-1.73.8-1.74,1.77,0,.98.79,1.77,1.77,1.77h0c.98,0,1.77-.79,1.77-1.77h0c0-.98-.79-1.77-1.77-1.77-.01,0-.02,0-.03,0h0Zm650.26.93c-1.04.02-1.87.87-1.87,1.91,0,1.05.85,1.91,1.91,1.91,1.05,0,1.91-.85,1.91-1.91,0-1.05-.85-1.91-1.91-1.91-.01,0-.02,0-.03,0h0Zm-275.23,5.98c-.5,0-.91.41-.91.91,0,.5.41.91.91.91.5,0,.91-.41.91-.91,0-.5-.41-.91-.91-.91Zm377.36,2.97c-.5,0-.91.41-.91.91,0,.5.41.91.91.91.5,0,.91-.41.91-.91,0-.5-.41-.91-.91-.91Zm-334.23,3.59c-.5,0-.91.41-.91.91,0,.5.41.91.91.91.5,0,.91-.41.91-.91,0-.5-.41-.91-.91-.91Zm123.41.38c-.5,0-.91.41-.91.91,0,.5.41.91.91.91.5,0,.91-.41.91-.91,0-.5-.41-.91-.91-.91Zm-62.64,17.33c-.7.03-1.25.6-1.25,1.29,0,.72.58,1.29,1.29,1.29h0c.72,0,1.29-.58,1.29-1.29h0c0-.71-.58-1.29-1.29-1.29-.02,0-.03,0-.05,0h0Zm-376.73.1c-.5,0-.91.41-.91.91,0,.5.41.91.91.91.5,0,.91-.41.91-.91,0-.5-.41-.91-.91-.91Zm-186.49,8.09c-1.04.02-1.87.87-1.87,1.91,0,1.05.85,1.91,1.91,1.91,1.05,0,1.91-.85,1.91-1.91,0-1.05-.85-1.91-1.91-1.91-.01,0-.02,0-.03,0Zm693.1,1.58c-.7.02-1.25.6-1.25,1.29,0,.72.58,1.29,1.29,1.29h0c.72,0,1.29-.58,1.29-1.29h0c0-.72-.58-1.3-1.29-1.3h0s-.03,0-.05,0Zm-304.58,8.7c-.5,0-.91.41-.91.91,0,.5.41.91.91.91.5,0,.91-.41.91-.91,0-.5-.41-.91-.91-.91Zm-324.85,1.33c-.5,0-.91.41-.91.91,0,.5.41.91.91.91.5,0,.91-.41.91-.91,0-.5-.41-.91-.91-.91Zm202.86,0c-.5,0-.91.41-.91.91,0,.5.41.91.91.91.5,0,.91-.41.91-.91,0-.5-.41-.91-.91-.91Zm216.6,18.29c-.7.03-1.25.6-1.25,1.29,0,.72.58,1.29,1.29,1.29h0c.72,0,1.29-.58,1.29-1.29h0c0-.72-.58-1.3-1.29-1.3h0s-.03,0-.05,0h0Zm-162.69,8.06c-.96.02-1.73.8-1.74,1.77,0,.98.79,1.77,1.77,1.77h0c.98,0,1.77-.79,1.77-1.77,0-.98-.79-1.77-1.77-1.77-.01,0-.02,0-.03,0h0Zm299.69,0c-.96.02-1.73.8-1.74,1.77,0,.98.79,1.77,1.77,1.77h0c.98,0,1.77-.79,1.77-1.77h0c0-.98-.79-1.77-1.77-1.77-.01,0-.02,0-.03,0h0Zm-196.11,1.38c-.96.02-1.74.81-1.74,1.77,0,.98.79,1.77,1.77,1.77h0c.98,0,1.77-.79,1.77-1.77h0c0-.98-.79-1.77-1.77-1.77h0s-.02,0-.03,0h0Zm-243.03,5.52c-.98,0-1.77.79-1.77,1.77,0,.98.79,1.77,1.77,1.77.98,0,1.77-.79,1.77-1.77h0c0-.98-.79-1.77-1.77-1.77h0Zm576.12,6.52c-.5,0-.91.41-.91.91,0,.5.41.91.91.91.5,0,.91-.41.91-.91,0-.5-.41-.91-.91-.91Zm-208.2.33c-1.04.02-1.87.87-1.87,1.91,0,1.05.85,1.91,1.91,1.91,1.05,0,1.91-.85,1.91-1.91,0-1.05-.85-1.91-1.91-1.91-.01,0-.02,0-.03,0h0Zm-221.39,12.93c-.5,0-.91.41-.91.91,0,.5.41.91.91.91.5,0,.91-.41.91-.91,0-.5-.41-.91-.91-.91Zm354.02,3.98c-.5,0-.91.41-.91.91,0,.5.41.91.91.91.5,0,.91-.41.91-.91,0-.5-.41-.91-.91-.91Zm-254.11,13.29c-.5,0-.91.41-.91.91,0,.5.41.91.91.91.5,0,.91-.41.91-.91,0-.5-.41-.91-.91-.91Zm-183.44,3.94c-.5,0-.91.41-.91.91,0,.5.41.91.91.91.5,0,.91-.41.91-.91,0-.5-.41-.91-.91-.91Zm456.11,38.45c-.5,0-.91.41-.91.91,0,.5.41.91.91.91.5,0,.91-.41.91-.91,0-.5-.41-.91-.91-.91Zm-84.13,2.51c-.7.03-1.25.6-1.25,1.29,0,.72.58,1.29,1.29,1.29h0c.72,0,1.29-.58,1.29-1.29h0c0-.72-.58-1.3-1.29-1.3h0s-.03,0-.05,0h0Zm-102.83,46.55c-.5,0-.91.41-.91.91,0,.5.41.91.91.91.5,0,.91-.41.91-.91,0-.5-.41-.91-.91-.91Zm-241.05,12.84c-.7.03-1.25.6-1.25,1.29,0,.72.58,1.29,1.29,1.29h0c.72,0,1.29-.58,1.29-1.29h0c0-.72-.58-1.3-1.29-1.3h0s-.03,0-.05,0h0Zm66.04,22.96c-.5,0-.91.41-.91.91,0,.5.41.91.91.91.5,0,.91-.41.91-.91,0-.5-.41-.91-.91-.91Zm326.17,22.54c-.5,0-.91.41-.91.91,0,.5.41.91.91.91.5,0,.91-.41.91-.91,0-.5-.41-.91-.91-.91Zm179,2.65c-.5,0-.91.41-.91.91,0,.5.41.91.91.91.5,0,.91-.41.91-.91,0-.5-.41-.91-.91-.91Zm-805.94,7.09c-.72,0-1.29.58-1.29,1.29h0c0,.72.58,1.3,1.29,1.3h0c.72,0,1.29-.58,1.29-1.29h0c0-.72-.58-1.3-1.29-1.3h0Zm443.32,0c-.72,0-1.29.58-1.29,1.29h0c0,.72.58,1.3,1.29,1.3h0c.72,0,1.29-.58,1.29-1.29h0c0-.72-.58-1.3-1.29-1.3h0Zm47.05,15.45c-.5,0-.91.41-.91.91,0,.5.41.91.91.91.5,0,.91-.41.91-.91,0-.5-.41-.91-.91-.91Zm310.59,9.4c-.7.03-1.25.6-1.25,1.29,0,.72.58,1.29,1.29,1.29h0c.72,0,1.29-.58,1.29-1.29h0c0-.72-.58-1.3-1.29-1.3h0s-.03,0-.05,0h0Zm-583.73,25.07c-.5,0-.91.41-.91.91,0,.5.41.91.91.91.5,0,.91-.41.91-.91,0-.5-.41-.91-.91-.91Z"/>
      <path id="path1351-2" data-name="path1351" class="cls-2" d="m1638.34,14.22c-.5,0-.91.41-.91.91,0,.5.41.91.91.91.5,0,.91-.41.91-.91,0-.5-.41-.91-.91-.91Zm300.63,1c-.98,0-1.77.79-1.77,1.77h0c0,.98.79,1.77,1.77,1.77h0c.98,0,1.77-.79,1.77-1.77,0-.98-.79-1.77-1.77-1.77Zm-580.96.87c-.5,0-.91.41-.91.91,0,.5.41.91.91.91.5,0,.91-.41.91-.91,0-.5-.41-.91-.91-.91Zm67.74,3.25c-1.05,0-1.91.85-1.91,1.91,0,1.05.85,1.91,1.91,1.91,1.05,0,1.91-.85,1.91-1.91,0-1.05-.85-1.91-1.91-1.91Zm404.08.02c-.96.02-1.74.81-1.74,1.77,0,.98.79,1.77,1.77,1.77.98,0,1.77-.79,1.77-1.77h0c0-.98-.79-1.77-1.77-1.77h0s-.02,0-.03,0Zm-796.59,14.56c-1.04.02-1.87.87-1.87,1.91,0,1.05.85,1.91,1.91,1.91,1.05,0,1.91-.85,1.91-1.91,0-1.05-.85-1.91-1.91-1.91-.01,0-.02,0-.03,0Zm206.93,4.86c-.96.02-1.74.81-1.74,1.77,0,.98.79,1.77,1.77,1.77.98,0,1.77-.79,1.77-1.77h0c0-.98-.79-1.77-1.77-1.77h0s-.02,0-.03,0Zm456.05.11c-.5,0-.91.41-.91.91,0,.5.41.91.91.91.5,0,.91-.41.91-.91,0-.5-.41-.91-.91-.91Zm-595.11.63c-.5,0-.91.41-.91.91,0,.5.41.91.91.91.5,0,.91-.41.91-.91,0-.5-.41-.91-.91-.91Zm478.15,1.87c-.5,0-.91.41-.91.91,0,.5.41.91.91.91.5,0,.91-.41.91-.91,0-.5-.41-.91-.91-.91Zm196.48,1.8c-1.04.02-1.87.87-1.87,1.91,0,1.05.85,1.91,1.91,1.91,1.05,0,1.91-.85,1.91-1.91,0-1.05-.85-1.91-1.91-1.91-.01,0-.02,0-.03,0h0Zm-285.04,6.13c-1.33,0-2.4,1.08-2.4,2.4,0,1.33,1.08,2.4,2.4,2.4,1.33,0,2.4-1.08,2.41-2.4,0-1.33-1.08-2.4-2.41-2.4Zm389.82,2.65c-1.33,0-2.4,1.08-2.4,2.41,0,1.33,1.08,2.4,2.4,2.4,1.33,0,2.4-1.08,2.41-2.4,0-1.33-1.08-2.41-2.41-2.41Zm-276.88,3.48c-.5,0-.91.41-.91.91,0,.5.41.91.91.91.5,0,.91-.41.91-.91,0-.5-.41-.91-.91-.91Zm-298.14,5.62c-.5,0-.91.41-.91.91,0,.5.41.91.91.91.5,0,.91-.41.91-.91,0-.5-.41-.91-.91-.91Zm73.34,6.99c-.96.02-1.73.8-1.74,1.77,0,.98.79,1.77,1.77,1.77h0c.98,0,1.77-.79,1.77-1.77,0-.98-.79-1.77-1.77-1.77-.01,0-.02,0-.03,0h0Zm73.86,5.2c-.5,0-.91.41-.91.91,0,.5.41.91.91.91.5,0,.91-.41.91-.91,0-.5-.41-.91-.91-.91Zm-422.84,7.5c-.5,0-.91.41-.91.91,0,.5.41.91.91.91.5,0,.91-.41.91-.91,0-.5-.41-.91-.91-.91Zm157.22.87c-1.05,0-1.91.85-1.91,1.91,0,1.05.85,1.91,1.91,1.91,1.05,0,1.91-.85,1.91-1.91,0-1.05-.85-1.91-1.91-1.91Zm526.74,1.24c-.96.02-1.73.8-1.74,1.77,0,.98.79,1.77,1.77,1.77.98,0,1.77-.79,1.77-1.77h0c0-.98-.79-1.77-1.77-1.77-.01,0-.02,0-.03,0Zm120.15,2.76c-.96.02-1.74.81-1.74,1.77,0,.98.79,1.77,1.77,1.77.98,0,1.77-.79,1.77-1.77,0-.98-.79-1.77-1.77-1.77h0s-.02,0-.03,0h0Zm69.1,7.61c-.5,0-.91.41-.91.91,0,.5.41.91.91.91.5,0,.91-.41.91-.91,0-.5-.41-.91-.91-.91Zm-383.19,10.61c-.5,0-.91.41-.91.91,0,.5.41.91.91.91.5,0,.91-.41.91-.91,0-.5-.41-.91-.91-.91Zm-133.92,10.61c-.5,0-.91.41-.91.91,0,.5.41.91.91.91.5,0,.91-.41.91-.91,0-.5-.41-.91-.91-.91Zm246.78,4.39c-.96.02-1.73.8-1.74,1.77,0,.98.79,1.77,1.77,1.77.98,0,1.77-.79,1.77-1.77h0c0-.98-.79-1.77-1.77-1.77-.01,0-.02,0-.03,0Zm-600.58,17.58c-.96.02-1.73.8-1.74,1.77,0,.98.79,1.77,1.77,1.77h0c.98,0,1.77-.79,1.77-1.77h0c0-.98-.79-1.77-1.77-1.77-.01,0-.02,0-.03,0Zm538.67,1.53c-.5,0-.91.41-.91.91,0,.5.41.91.91.91.5,0,.91-.41.91-.91,0-.5-.41-.91-.91-.91Zm296.4.7c-1.04.02-1.87.87-1.87,1.91,0,1.05.85,1.91,1.91,1.91,1.05,0,1.91-.85,1.91-1.91,0-1.05-.85-1.91-1.91-1.91-.01,0-.02,0-.03,0h0Zm-538.28,1c-.5,0-.91.41-.91.91,0,.5.41.91.91.91.5,0,.91-.41.91-.91,0-.5-.41-.91-.91-.91Zm415.33.18c-.5,0-.91.41-.91.91,0,.5.41.91.91.91.5,0,.91-.41.91-.91,0-.5-.41-.91-.91-.91Zm-488.47,2.81c-.5,0-.91.41-.91.91,0,.5.41.91.91.91.5,0,.91-.41.91-.91,0-.5-.41-.91-.91-.91Zm444.4,0c-.5,0-.91.41-.91.91,0,.5.41.91.91.91.5,0,.91-.41.91-.91,0-.5-.41-.91-.91-.91Zm-597.22,2.81c-.5,0-.91.41-.91.91,0,.5.41.91.91.91.5,0,.91-.41.91-.91,0-.5-.41-.91-.91-.91Zm176.24,21.24c-.96.02-1.74.81-1.74,1.77,0,.98.79,1.77,1.77,1.77h0c.98,0,1.77-.79,1.77-1.77h0c0-.98-.79-1.77-1.77-1.77h0s-.02,0-.03,0h0Zm-89.81,2.93c-.98,0-1.77.79-1.77,1.77,0,.98.79,1.77,1.77,1.77.98,0,1.77-.79,1.77-1.77h0c0-.98-.79-1.77-1.77-1.77h0Zm205.14,8.65c-.5,0-.91.41-.91.91,0,.5.41.91.91.91.5,0,.91-.41.91-.91,0-.5-.41-.91-.91-.91Zm475.51,15.26c-.72,0-1.29.58-1.29,1.29h0c0,.72.58,1.29,1.29,1.3h0c.72,0,1.29-.58,1.29-1.29h0c0-.72-.58-1.3-1.29-1.3h0Zm-261.4.81c-1.04.02-1.87.87-1.87,1.91,0,1.05.85,1.91,1.91,1.91,1.05,0,1.91-.85,1.91-1.91,0-1.05-.85-1.91-1.91-1.91-.01,0-.02,0-.03,0h0Zm-471.94,7.37c-.5,0-.91.41-.91.91,0,.5.41.91.91.91.5,0,.91-.41.91-.91,0-.5-.41-.91-.91-.91Zm689.42,1.58c-.5,0-.91.41-.91.91,0,.5.41.91.91.91.5,0,.91-.41.91-.91,0-.5-.41-.91-.91-.91Zm-421.64,7.96c-.5,0-.91.41-.91.91,0,.5.41.91.91.91.5,0,.91-.41.91-.91,0-.5-.41-.91-.91-.91Zm-307.16,9.21c-.5,0-.91.41-.91.91,0,.5.41.91.91.91.5,0,.91-.41.91-.91,0-.5-.41-.91-.91-.91Zm197.11,5.37c-.5,0-.91.41-.91.91,0,.5.41.91.91.91.5,0,.91-.41.91-.91,0-.5-.41-.91-.91-.91Zm448.34,8.96c-.96.02-1.73.8-1.74,1.77,0,.98.79,1.77,1.77,1.77h0c.98,0,1.77-.79,1.77-1.77,0-.98-.79-1.77-1.77-1.77-.01,0-.02,0-.03,0h0Zm-185.81,1.65c-.5,0-.91.41-.91.91,0,.5.41.91.91.91.5,0,.91-.41.91-.91,0-.5-.41-.91-.91-.91Zm-545.9,2.77c-.5,0-.91.41-.91.91,0,.5.41.91.91.91.5,0,.91-.41.91-.91,0-.5-.41-.91-.91-.91Zm393.42,11.81c-.5,0-.91.41-.91.91,0,.5.41.91.91.91.5,0,.91-.41.91-.91,0-.5-.41-.91-.91-.91Zm249.75,4.12c-.5,0-.91.41-.91.91,0,.5.41.91.91.91.5,0,.91-.41.91-.91,0-.5-.41-.91-.91-.91Zm-166.21,1.18c-.5,0-.91.41-.91.91,0,.5.41.91.91.91.5,0,.91-.41.91-.91,0-.5-.41-.91-.91-.91Zm435.71,3.32c-.98,0-1.77.79-1.77,1.77h0c0,.98.79,1.77,1.77,1.77h0c.98,0,1.77-.79,1.77-1.77,0-.98-.79-1.77-1.77-1.77Zm-720.46,7.13c-1.33,0-2.41,1.08-2.41,2.41,0,1.33,1.08,2.4,2.41,2.4,1.33,0,2.4-1.08,2.4-2.4,0-1.33-1.08-2.4-2.4-2.41Zm136.21,11.09c-1.04.02-1.87.87-1.87,1.91,0,1.05.85,1.91,1.91,1.91,1.05,0,1.91-.85,1.91-1.91,0-1.05-.85-1.91-1.91-1.91-.01,0-.02,0-.04,0h0Zm-67.57,1.13c-.98,0-1.77.79-1.77,1.77h0c0,.98.79,1.77,1.77,1.77h0c.98,0,1.77-.79,1.77-1.77h0c0-.98-.79-1.77-1.77-1.77h0Zm338.33,3.9c-.96.02-1.74.81-1.74,1.77,0,.98.79,1.77,1.77,1.77.98,0,1.77-.79,1.77-1.77,0-.98-.79-1.77-1.77-1.77-.01,0-.02,0-.03,0h0Zm-163.21,5.06c-.5,0-.91.41-.91.91,0,.5.41.91.91.91.5,0,.91-.41.91-.91,0-.5-.41-.91-.91-.91Zm-54.48,5.49c-.5,0-.91.41-.91.91,0,.5.41.91.91.91.5,0,.91-.41.91-.91,0-.5-.41-.91-.91-.91Zm-267.1.72c-.96.02-1.73.8-1.74,1.77,0,.98.79,1.77,1.77,1.77h0c.98,0,1.77-.79,1.77-1.77h0c0-.98-.79-1.77-1.77-1.77-.01,0-.02,0-.03,0h0Zm650.26.93c-1.04.02-1.87.87-1.87,1.91,0,1.05.85,1.91,1.91,1.91,1.05,0,1.91-.85,1.91-1.91,0-1.05-.85-1.91-1.91-1.91-.01,0-.02,0-.03,0h0Zm-275.23,5.98c-.5,0-.91.41-.91.91,0,.5.41.91.91.91.5,0,.91-.41.91-.91,0-.5-.41-.91-.91-.91Zm377.36,2.97c-.5,0-.91.41-.91.91,0,.5.41.91.91.91.5,0,.91-.41.91-.91,0-.5-.41-.91-.91-.91Zm-334.23,3.59c-.5,0-.91.41-.91.91,0,.5.41.91.91.91.5,0,.91-.41.91-.91,0-.5-.41-.91-.91-.91Zm123.41.38c-.5,0-.91.41-.91.91,0,.5.41.91.91.91.5,0,.91-.41.91-.91,0-.5-.41-.91-.91-.91Zm-62.64,17.33c-.7.03-1.25.6-1.25,1.29,0,.72.58,1.29,1.29,1.29h0c.72,0,1.29-.58,1.29-1.29h0c0-.71-.58-1.29-1.29-1.29-.02,0-.03,0-.05,0h0Zm-376.73.1c-.5,0-.91.41-.91.91,0,.5.41.91.91.91.5,0,.91-.41.91-.91,0-.5-.41-.91-.91-.91Zm-186.49,8.09c-1.04.02-1.87.87-1.87,1.91,0,1.05.85,1.91,1.91,1.91,1.05,0,1.91-.85,1.91-1.91,0-1.05-.85-1.91-1.91-1.91-.01,0-.02,0-.03,0Zm693.1,1.58c-.7.02-1.25.6-1.25,1.29,0,.72.58,1.29,1.29,1.29h0c.72,0,1.29-.58,1.29-1.29h0c0-.72-.58-1.3-1.29-1.3h0s-.03,0-.05,0Zm-304.58,8.7c-.5,0-.91.41-.91.91,0,.5.41.91.91.91.5,0,.91-.41.91-.91,0-.5-.41-.91-.91-.91Zm-324.85,1.33c-.5,0-.91.41-.91.91,0,.5.41.91.91.91.5,0,.91-.41.91-.91,0-.5-.41-.91-.91-.91Zm202.86,0c-.5,0-.91.41-.91.91,0,.5.41.91.91.91.5,0,.91-.41.91-.91,0-.5-.41-.91-.91-.91Zm216.6,18.29c-.7.03-1.25.6-1.25,1.29,0,.72.58,1.29,1.29,1.29h0c.72,0,1.29-.58,1.29-1.29h0c0-.72-.58-1.3-1.29-1.3h0s-.03,0-.05,0h0Zm-162.69,8.06c-.96.02-1.73.8-1.74,1.77,0,.98.79,1.77,1.77,1.77h0c.98,0,1.77-.79,1.77-1.77,0-.98-.79-1.77-1.77-1.77-.01,0-.02,0-.03,0h0Zm299.69,0c-.96.02-1.73.8-1.74,1.77,0,.98.79,1.77,1.77,1.77h0c.98,0,1.77-.79,1.77-1.77h0c0-.98-.79-1.77-1.77-1.77-.01,0-.02,0-.03,0h0Zm-196.11,1.38c-.96.02-1.74.81-1.74,1.77,0,.98.79,1.77,1.77,1.77h0c.98,0,1.77-.79,1.77-1.77h0c0-.98-.79-1.77-1.77-1.77h0s-.02,0-.03,0h0Zm-243.03,5.52c-.98,0-1.77.79-1.77,1.77,0,.98.79,1.77,1.77,1.77.98,0,1.77-.79,1.77-1.77h0c0-.98-.79-1.77-1.77-1.77h0Zm576.12,6.52c-.5,0-.91.41-.91.91,0,.5.41.91.91.91.5,0,.91-.41.91-.91,0-.5-.41-.91-.91-.91Zm-208.2.33c-1.04.02-1.87.87-1.87,1.91,0,1.05.85,1.91,1.91,1.91,1.05,0,1.91-.85,1.91-1.91,0-1.05-.85-1.91-1.91-1.91-.01,0-.02,0-.03,0h0Zm-221.39,12.93c-.5,0-.91.41-.91.91,0,.5.41.91.91.91.5,0,.91-.41.91-.91,0-.5-.41-.91-.91-.91Zm354.02,3.98c-.5,0-.91.41-.91.91,0,.5.41.91.91.91.5,0,.91-.41.91-.91,0-.5-.41-.91-.91-.91Zm-254.11,13.29c-.5,0-.91.41-.91.91,0,.5.41.91.91.91.5,0,.91-.41.91-.91,0-.5-.41-.91-.91-.91Zm-183.44,3.94c-.5,0-.91.41-.91.91,0,.5.41.91.91.91.5,0,.91-.41.91-.91,0-.5-.41-.91-.91-.91Zm456.11,38.45c-.5,0-.91.41-.91.91,0,.5.41.91.91.91.5,0,.91-.41.91-.91,0-.5-.41-.91-.91-.91Zm-84.13,2.51c-.7.03-1.25.6-1.25,1.29,0,.72.58,1.29,1.29,1.29h0c.72,0,1.29-.58,1.29-1.29h0c0-.72-.58-1.3-1.29-1.3h0s-.03,0-.05,0h0Zm-102.83,46.55c-.5,0-.91.41-.91.91,0,.5.41.91.91.91.5,0,.91-.41.91-.91,0-.5-.41-.91-.91-.91Zm-241.05,12.84c-.7.03-1.25.6-1.25,1.29,0,.72.58,1.29,1.29,1.29h0c.72,0,1.29-.58,1.29-1.29h0c0-.72-.58-1.3-1.29-1.3h0s-.03,0-.05,0h0Zm66.04,22.96c-.5,0-.91.41-.91.91,0,.5.41.91.91.91.5,0,.91-.41.91-.91,0-.5-.41-.91-.91-.91Zm326.17,22.54c-.5,0-.91.41-.91.91,0,.5.41.91.91.91.5,0,.91-.41.91-.91,0-.5-.41-.91-.91-.91Zm179,2.65c-.5,0-.91.41-.91.91,0,.5.41.91.91.91.5,0,.91-.41.91-.91,0-.5-.41-.91-.91-.91Zm-805.94,7.09c-.72,0-1.29.58-1.29,1.29h0c0,.72.58,1.3,1.29,1.3h0c.72,0,1.29-.58,1.29-1.29h0c0-.72-.58-1.3-1.29-1.3h0Zm443.32,0c-.72,0-1.29.58-1.29,1.29h0c0,.72.58,1.3,1.29,1.3h0c.72,0,1.29-.58,1.29-1.29h0c0-.72-.58-1.3-1.29-1.3h0Zm47.05,15.45c-.5,0-.91.41-.91.91,0,.5.41.91.91.91.5,0,.91-.41.91-.91,0-.5-.41-.91-.91-.91Zm310.59,9.4c-.7.03-1.25.6-1.25,1.29,0,.72.58,1.29,1.29,1.29h0c.72,0,1.29-.58,1.29-1.29h0c0-.72-.58-1.3-1.29-1.3h0s-.03,0-.05,0h0Zm-583.73,25.07c-.5,0-.91.41-.91.91,0,.5.41.91.91.91.5,0,.91-.41.91-.91,0-.5-.41-.91-.91-.91Z"/>
      <g id="g1380">
        <circle id="path137" class="cls-4" cx="1756.34" cy="156.54" r="48.45"/>
        <g id="circle1299" class="cls-1">
          <circle class="cls-4" cx="1756.34" cy="156.54" r="48.45"/>
        </g>
        <g id="circle1373" class="cls-5">
          <circle class="cls-4" cx="1756.34" cy="156.54" r="48.45"/>
        </g>
      </g>
    </g>
  </g>
</svg>