<?xml version="1.0" encoding="UTF-8"?>
<svg id="filed" xmlns="http://www.w3.org/2000/svg" viewBox="0 0 2000 1000">
  <defs>
    <style>
      .cls-1 {
        fill: #e8e4e0;
      }

      .cls-1, .cls-2, .cls-3, .cls-4, .cls-5, .cls-6, .cls-7, .cls-8, .cls-9, .cls-10 {
        stroke-width: 0px;
      }

      .cls-3 {
        fill: #88af55;
      }

      .cls-4 {
        fill: #e2e1e0;
      }

      .cls-5 {
        fill: #b2cccd;
      }

      .cls-6 {
        fill: #92c463;
      }

      .cls-7 {
        fill: #282726;
      }

      .cls-8 {
        fill: #6b919c;
      }

      .cls-9 {
        fill: #eaedef;
      }

      .cls-10 {
        fill: #c7d9d4;
      }
    </style>
  </defs>
  <g id="mountains">
    <g id="mountain_3" data-name="mountain 3">
      <path class="cls-10" d="m483.04,622.96c25.23-12.99,50.54-26.01,77.26-35.56,32.73-11.7,67.1-18.01,101.3-24.28,26.11-4.79,52.25-9.58,78.64-12.42,23.2-2.5,47.51-3.34,68.98,5.81,8.86,3.78,17,9.17,26.07,12.43,23.07,8.28,48.91,1.75,72.92,6.67,7.44,1.53,14.98,4.37,20,10.07,6.23,7.09,7.45,17.14,8.4,26.54,4.05,40.34,7.53,83.64-12.38,118.95-14.43,25.58-39.72,43.64-66.88,54.82-27.16,11.18-56.4,16.16-85.36,21.05-24.97,4.22-50.18,8.43-75.48,7.27-41.57-1.91-80.97-18.17-119.37-34.2-44.6-18.61-93.07-40.84-113.19-84.78-2.44-5.33-4.42-11.07-4.06-16.91.33-5.26,2.53-10.19,4.7-14.99,6.21-13.74,12.41-27.47,18.62-41.21"/>
    </g>
    <path class="cls-5" d="m519.38,574.96c-19.44-7.62-38.99-15.06-59.1-20.64-50.25-13.96-103.74-16.09-154.94-6.19-30.22,5.85-60.51,15.87-91.07,12.2-29.45-3.54-56.72-19.63-86.37-20.24-23.96-.49-46.78,9.17-69.84,15.69C39.2,561.11,18.21,564.12,0,558.22v206.79c27.53,6.39,56.24,8.92,84.49,11.32,60.22,5.12,120.6,10.25,181,8.21,86.28-2.91,171.48-20.41,257.68-25.15,77.35-4.25,155.56,1.77,231.89-11.47,29.63-5.14,58.76-13.16,86.84-23.92-104.45-55.98-212.21-105.78-322.53-149.05Z"/>
    <g>
      <path class="cls-8" d="m461.69,709.47l-48.15,23.63c32.83-5.41,64.83-13.99,96.35-24.37-16.06-.19-32.12.01-48.19.75Z"/>
      <path class="cls-8" d="m2000,367.18c-96.46,4.2-192.51,17.85-286.31,40.73-59.13,14.42-117.55,32.54-177.8,41.2-58.62,8.43-118.18,7.79-177.05,14.22-52.77,5.76-104.74,17.17-156.55,28.74-171.11,38.21-342.51,78.63-505.57,143.07-62.16,24.56-123.52,52.72-186.83,73.57,83.27.99,166.36,12.82,249.58,18.83,105.72,7.64,211.88,5.89,317.86,4.14,160.09-2.65,320.18-5.3,480.27-7.95,147.47-2.44,294.94-4.88,442.41-7.32v-349.23Z"/>
    </g>
  </g>
  <g id="filed-2" data-name="filed">
    <g id="field_green" data-name="field green">
      <path class="cls-6" d="m2000,1000v-412.06c-269.66,11.78-473.18,21.47-740.14,60.96-12.54,1.86-109.61-7.47-110.24-7.45C765.36,651.35,384.24,730.89,0,725.46v274.54h2000Z"/>
    </g>
    <g id="filed_dark" data-name="filed dark">
      <g id="field">
        <path class="cls-3" d="m1259.86,682.78c-12.54,1.86-109.61-7.47-110.24-7.45-384.26,9.9-765.37,89.44-1149.62,84.02v40.71c384.24,5.43,765.36-74.11,1149.62-84.02.63-.02,97.7,9.31,110.24,7.45,266.96-39.49,470.48-49.17,740.14-60.96v-40.71c-269.66,11.78-473.18,21.47-740.14,60.96Z"/>
      </g>
      <g id="field-2" data-name="field">
        <path class="cls-3" d="m1259.86,760.69c-12.54,1.86-109.61-7.47-110.24-7.45-384.26,9.9-765.37,89.44-1149.62,84.02v40.71c384.24,5.43,765.36-74.11,1149.62-84.02.63-.02,97.7,9.31,110.24,7.45,266.96-39.49,470.48-49.17,740.14-60.96v-40.71c-269.66,11.78-473.18,21.47-740.14,60.96Z"/>
      </g>
      <g id="field-3" data-name="field">
        <path class="cls-3" d="m1259.86,838.59c-12.54,1.86-109.61-7.47-110.24-7.45-384.26,9.9-765.37,89.44-1149.62,84.02v40.71c384.24,5.43,765.36-74.11,1149.62-84.02.63-.02,97.7,9.31,110.24,7.45,266.96-39.49,470.48-49.17,740.14-60.96v-40.71c-269.66,11.78-473.18,21.47-740.14,60.96Z"/>
      </g>
      <g id="filed-3" data-name="filed">
        <path class="cls-3" d="m1557.99,1000c142.19-12.45,280.19-18.77,442.01-25.84v-40.71c-269.66,11.78-473.18,21.47-740.14,60.96-12.54,1.86-109.61-7.47-110.24-7.45-76.77,1.98-153.42,6.74-230,13.05h638.36Z"/>
      </g>
      <g id="field-4" data-name="field">
        <path class="cls-3" d="m551.4,1000c199.14-21.08,398.26-45.09,598.22-50.24.63-.02,97.7,9.31,110.24,7.45,266.96-39.49,470.48-49.17,740.14-60.96v-40.71c-269.66,11.78-473.18,21.47-740.14,60.96-12.54,1.86-109.61-7.47-110.24-7.45C765.36,918.95,384.24,998.49,0,993.06v6.94h551.4Z"/>
      </g>
    </g>
  </g>
  <g id="hut">
    <rect class="cls-9" x="1527.77" y="604.9" width="41.43" height="34.93"/>
    <polygon class="cls-4" points="1527.77 639.83 1517.21 635.22 1517.21 612.01 1527.77 604.9 1527.77 639.83"/>
    <polygon class="cls-7" points="1548.48 585.94 1572.85 607.33 1525.83 606.39 1548.48 585.94"/>
    <polygon class="cls-7" points="1515.45 613.16 1514.36 612.34 1548.48 585.94 1527.77 606.43 1515.45 613.16"/>
    <polygon class="cls-2" points="1543.13 615.12 1543.13 639.83 1553.49 639.83 1553.49 615.46 1543.13 615.12"/>
  </g>
  <g id="way">
    <path class="cls-1" d="m1288.2,1000c10.45-19.85,22.51-38.67,37.67-55.19,39.83-43.42,97.01-66.56,153.8-82.25,56.79-15.69,115.57-25.43,169.79-48.49,22.88-9.73,45.67-22.59,59.3-43.39,5.92-9.04,9.9-20.59,5.78-30.58-4.46-10.8-16.48-15.9-26.77-21.45-10.29-5.55-20.99-15.1-19.13-26.64.77-4.78,6.73-11.07,6.2-15.89-.58-5.23-4.14-9.42-8.87-11.74-28.17-13.83-59.22-17.57-86.33-27.08l-11.26-.37c22.72,9.45,45.44,13.91,68.16,23.36,5.06,2.1,11.14,6.19,9.58,11.44-1.11,3.73-5.61,9.95-8.32,12.74-5.89,6.06-9.92,16.23-3.91,22.17,6.01,5.94,19.55,9.86,24.52,16.7,8.61,11.86,6.97,24.91-2.65,35.96-9.63,11.05-23.64,17.09-37.27,22.46-166.4,65.62-348.44,84.4-514.39,151.13-34.87,14.02-68.88,30.1-102.86,46.17-13.85,6.55-27.91,13.27-41.27,20.94h328.26Z"/>
  </g>
</svg>