<?xml version="1.0" encoding="UTF-8"?>
<svg id="Logo" xmlns="http://www.w3.org/2000/svg" viewBox="0 0 1000 1000">
  <defs>
    <style>
      .cls-1 {
        fill: #fff;
      }

      .cls-1, .cls-2 {
        stroke-width: 0px;
      }

      .cls-2 {
        fill: #f1e622;
      }
    </style>
  </defs>
  <path id="wine" class="cls-2" d="m703.66,158.28c34.19,291.55-63.88,431.68-300.41,413.3l-26.15-3.7c-235.01-48.52-288.93-213.54-169.95-489.78l496.51,80.18Z"/>
  <path id="glass" class="cls-1" d="m526.69,578.54c124.55-18.68,192.82-117.5,203.13-237.6,3.14-31.18,1.97-62.2-.69-92.69-6.38-60.83-16.4-120.6-38.78-177.18-1.04,59.86,4.35,118.69.78,177.94-8.17,126.13-33.36,263.49-170.76,301.83-5.07,1.61-15.54,4.18-20.77,5.14-28.07,5.14-57.88,9.87-86.29,4.67-21.08-4.18-42.63-6.89-63.27-13.28C69.35,471.05,163.47,207.67,241.65,8.1l-2.96-1.48c-31.48,50.97-58.15,105.13-78.19,162.3-19.5,57.17-32.44,118.15-28.18,180.86,9.33,138.75,118.01,208.57,244.58,231.51,0,0,4.38.58,7.76,1.04-2.96,9.22-5.15,18.55-7.39,27.87-10.42,40.8-18.52,82.02-20.58,123.99-3.8,27.66-12.38,54.65-14.35,82.57-1.44,18.47-2.37,36.89-1.93,55.38-61.12,2.16-121.77,30.28-157.58,81.91l1.48,6.44c12.94-2.35,25.85-4.77,38.81-6.9,64.08-12.07,129.02-20.68,194.23-14.92,26.07,2.02,52.1,5.18,78.08,8.55,0,0,1.15-6.5,1.16-6.5-34.67-44.43-87.21-66.64-140.96-68.57,1.09-3.58,2.13-7.17,3.13-10.77,13.03-41.09,14.44-81.93,18.87-124.23,5.73-27.37,11.21-54.71,12.31-82.86,1.14-23.72,3.66-47.15,2.83-70.89,13.84,1.47,28.02-1.23,41.8-.33,30.49,1.65,61.91.75,92.14-4.54Z"/>
</svg>